<svg width="334" height="441" xmlns="http://www.w3.org/2000/svg"><path d="M1.731 272.052C-11.128 163.505 50.047 13.226 105.697.492 139.43-7.225 169.039 77.624 223 125.458c35.06 31.078 104.835 15.835 109.368 54.103 11.51 97.166-109.927 243.961-174.8 258.805C92.695 453.208 14.59 380.598 1.731 272.052zM192.565 17.063c8.108-11.06 30.922 1.725 43.736-5.564 17.887-10.172 32.895-2.88 34.952 18.696 1.336 14.018-2.18 43.8-19.482 33.765-17.303-10.035-78.63-20.4-59.206-46.897z" fill="rgba(0,0,0,0.1)" fill-rule="evenodd"/></svg>