<?xml version="1.0" standalone="no"?>
<!DOCTYPE svg PUBLIC "-//W3C//DTD SVG 20010904//EN"
 "http://www.w3.org/TR/2001/REC-SVG-20010904/DTD/svg10.dtd">
<svg version="1.0" xmlns="http://www.w3.org/2000/svg"
 width="512.000000pt" height="512.000000pt" viewBox="0 0 512.000000 512.000000"
 preserveAspectRatio="xMidYMid meet">
<metadata>
Created by potrace 1.11, written by Peter Selinger 2001-2013
</metadata>
<g transform="translate(0.000000,512.000000) scale(0.100000,-0.100000)"
fill="#000000" stroke="none">
<path d="M0 2560 l0 -2560 2560 0 2560 0 0 2560 0 2560 -2560 0 -2560 0 0
-2560z m2831 2057 c195 -51 352 -135 488 -263 281 -264 386 -608 295 -969 -47
-189 -141 -369 -291 -560 l-68 -87 -42 49 c-24 26 -43 50 -43 53 0 3 27 39 61
80 115 143 206 318 249 475 28 103 37 282 20 378 -65 367 -376 664 -767 732
-412 72 -834 -131 -1020 -490 -64 -124 -84 -201 -90 -345 -6 -150 15 -268 72
-407 70 -167 119 -240 397 -584 l203 -251 41 47 41 48 39 -48 c21 -25 38 -51
36 -57 -1 -5 -173 -218 -381 -472 -400 -488 -431 -520 -536 -551 -127 -39
-256 -7 -345 84 -85 86 -108 177 -74 292 20 66 88 138 150 157 96 28 199 6
256 -54 123 -132 -9 -343 -167 -269 -61 30 -72 92 -22 129 27 20 29 20 58 3
36 -20 49 -15 49 17 0 74 -137 84 -180 13 -63 -103 -4 -227 121 -257 65 -16
144 7 201 58 23 20 173 198 335 395 l293 359 -47 59 c-26 33 -61 77 -79 97
l-32 37 -39 -45 c-244 -286 -360 -360 -563 -360 -225 0 -409 128 -470 329 -25
79 -25 152 -2 229 35 110 104 186 219 240 51 24 70 27 158 27 82 0 109 -4 148
-22 139 -64 212 -195 177 -318 -16 -56 -81 -132 -135 -156 -117 -54 -265 21
-265 132 0 46 28 79 67 79 36 0 63 -27 63 -62 0 -68 96 -51 133 24 54 110 -88
230 -234 199 -218 -47 -285 -295 -127 -467 99 -108 261 -140 415 -82 63 23
177 126 294 266 l78 93 -105 132 c-216 270 -309 448 -360 684 -24 117 -23 305
5 417 71 291 296 558 586 692 82 38 220 80 310 94 105 16 318 5 426 -23z
m-162 -357 c165 -21 306 -91 422 -210 150 -155 203 -354 149 -566 -44 -171
-104 -268 -378 -611 -111 -139 -202 -255 -202 -259 0 -6 161 -204 166 -204 7
0 164 203 164 212 0 5 -16 29 -35 52 -19 24 -35 47 -35 52 1 19 80 99 87 88 5
-6 80 -98 168 -205 239 -291 288 -334 422 -365 172 -40 336 34 411 186 35 72
38 174 5 236 -69 130 -228 188 -343 124 -84 -47 -115 -137 -70 -200 39 -55
120 -58 120 -4 0 58 69 85 110 44 48 -48 11 -147 -70 -187 -82 -42 -169 -24
-242 48 -89 89 -99 214 -24 311 75 100 174 144 305 136 220 -13 386 -197 368
-407 -20 -236 -202 -404 -452 -418 -213 -12 -344 58 -534 286 -52 62 -97 111
-101 109 -5 -2 -75 -86 -155 -188 -81 -102 -153 -191 -160 -198 -10 -11 -20
-4 -54 37 l-43 51 36 43 c20 24 36 47 36 50 0 3 -75 97 -166 209 -92 112 -171
208 -175 213 -4 6 10 33 33 62 l40 52 50 -59 50 -60 80 100 c44 55 78 104 76
109 -6 17 -173 230 -181 230 -4 1 -77 -87 -163 -194 l-155 -196 -41 51 -40 51
36 46 36 46 -35 46 c-233 308 -315 532 -271 741 26 124 76 212 175 310 119
118 242 179 401 200 82 11 89 11 179 0z m36 -2305 c114 -137 231 -286 261
-331 173 -259 202 -556 77 -797 -53 -103 -182 -230 -283 -279 -98 -47 -175
-67 -285 -75 -311 -20 -570 166 -630 452 -18 87 -18 123 -1 207 20 94 62 172
126 237 206 208 524 170 637 -75 21 -47 25 -67 21 -129 -3 -62 -8 -80 -33
-117 -17 -23 -49 -56 -72 -72 -78 -54 -196 -44 -225 20 -10 20 -8 29 9 52 18
23 28 27 74 27 66 0 85 9 104 46 24 45 18 90 -17 149 -103 170 -365 126 -465
-78 -21 -44 -28 -74 -31 -143 -7 -137 34 -237 133 -328 118 -107 278 -144 457
-106 298 63 479 349 414 656 -19 87 -69 206 -116 277 -21 31 -107 140 -191
242 -83 102 -176 215 -206 252 l-55 67 43 51 c23 27 43 49 44 48 2 -2 96 -115
210 -253z m552 -90 c137 -165 265 -314 285 -331 127 -111 322 -64 348 84 15
92 -35 162 -117 162 -55 0 -83 -21 -83 -63 0 -24 3 -28 18 -21 9 4 33 9 53 12
30 3 40 -1 53 -19 24 -35 20 -57 -18 -95 -30 -30 -40 -34 -88 -34 -85 0 -141
50 -154 137 -17 116 81 213 219 213 100 0 180 -48 223 -132 56 -110 39 -228
-46 -321 -128 -140 -326 -152 -487 -30 -32 25 -501 578 -534 630 -11 18 -8 26
26 67 21 26 41 45 45 44 4 -2 120 -138 257 -303z"/>
<path d="M2460 4125 c-199 -45 -358 -190 -406 -370 -44 -163 25 -391 182 -598
36 -49 68 -87 69 -85 17 17 155 194 155 199 0 3 -25 39 -56 80 -85 113 -114
179 -114 264 0 82 20 134 71 184 135 136 383 96 460 -74 23 -50 25 -156 4
-214 -16 -46 -86 -152 -97 -148 -4 1 -23 24 -42 52 -33 45 -34 51 -21 70 70
94 59 207 -25 250 -37 19 -113 19 -150 0 -72 -37 -93 -129 -47 -210 17 -30
337 -464 365 -495 12 -14 189 220 242 322 49 93 80 208 80 294 0 69 -28 169
-63 227 -32 53 -120 141 -178 178 -116 74 -293 105 -429 74z"/>
</g>
</svg>
